# xmcd CD database file
#
# Track frame offsets:
#	150
#	22525
#	29155
#	51342
#	69739
#	79279
#	91142
#	102788
#	132338
#	149463
#	167803
#	184115
#	201986
#
# Disc length: 2927 seconds
#
# Revision: 0
# Processed by: cddbd v1.5.2PL0 Copyright (c) Steve Scherf et al.
# Submitted via: CDex 1.70beta2
#
DISCID=b70b6d0d
DTITLE=Rodrigo Leão - O Mundo [1993-2006] Disc 2
DYEAR=2006
DGENRE=Jazz
TTITLE0=Carpe Diem
TTITLE1=Amatorius
TTITLE2=Alma Mater
TTITLE3=Ave Mundi
TTITLE4=A Espera
TTITLE5=Final
TTITLE6=Imortal
TTITLE7=O Exercício
TTITLE8=Ruínas
TTITLE9=Ascensão
TTITLE10=A Tragédia
TTITLE11=Vita Brevis
TTITLE12=O Novo Mundo
EXTD=YEAR: 2006
EXTT0=
EXTT1=
EXTT2=
EXTT3=
EXTT4=
EXTT5=
EXTT6=
EXTT7=
EXTT8=
EXTT9=
EXTT10=
EXTT11=
EXTT12=
PLAYORDER=
